<?xml version="1.0" encoding="UTF-8" standalone="no"?><svg xmlns="http://www.w3.org/2000/svg" xmlns:xlink="http://www.w3.org/1999/xlink" contentStyleType="text/css" height="216px" preserveAspectRatio="none" style="width:519px;height:216px;background:#FFFFFF;" version="1.1" viewBox="0 0 519 216" width="519.5px" zoomAndPan="magnify"><defs/><g><rect fill="none" height="14.5601" id="_title" style="stroke:none;stroke-width:0.5;" width="54" x="229.375" y="2.5"/><text fill="#000000" font-family="sans-serif" font-size="7" font-weight="bold" lengthAdjust="spacing" textLength="49" x="231.875" y="13.022">适配器模式类图</text><!--MD5=[06d07f313194f4e06cbaa14ae98dff8b]
class TreeViewer--><g id="elem_TreeViewer"><rect codeLine="5" fill="#F1F1F1" height="62.2402" id="TreeViewer" rx="1.25" ry="1.25" style="stroke:#181818;stroke-width:0.25;" width="187.5" x="174.75" y="77.5601"/><ellipse cx="248.375" cy="85.5601" fill="#ADD1B2" rx="5.5" ry="5.5" style="stroke:#181818;stroke-width:0.5;"/><path d="M248.2188,88.5601 Q247.25,88.5601 246.6875,87.8491 Q246.125,87.1304 246.125,85.6538 Q246.125,84.4038 246.7188,83.5601 Q247.3125,82.7163 248.3438,82.7163 Q248.5859,82.7163 248.8359,82.771 Q249.0391,82.8413 249.1641,82.8413 Q249.2656,82.8413 249.3047,82.8335 Q249.3516,82.8179 249.6172,82.4819 L249.9844,84.5991 L249.5,84.896 Q249.25,84.1226 248.9609,83.8413 Q248.6797,83.5601 248.2266,83.5601 Q247.6484,83.5601 247.3047,84.1538 Q246.9688,84.7397 246.9688,85.6538 Q246.9688,86.6538 247.2578,87.1851 Q247.5469,87.7163 248.1953,87.7163 Q248.6563,87.7163 248.9766,87.4351 Q249.3047,87.146 249.4766,86.4507 L249.9922,86.7085 Q249.7969,87.5835 249.3281,88.0757 Q248.8594,88.5601 248.2188,88.5601 Z " fill="#000000"/><text fill="#000000" font-family="sans-serif" font-size="7" lengthAdjust="spacing" textLength="36" x="258.625" y="88.802">TreeViewer</text><line style="stroke:#181818;stroke-width:0.25;" x1="175.25" x2="361.75" y1="93.5601" y2="93.5601"/><text fill="#000000" font-family="sans-serif" font-size="7" lengthAdjust="spacing" textLength="120" x="177.75" y="103.582">ITreeContentProvider contentProvider</text><text fill="#000000" font-family="sans-serif" font-size="7" lengthAdjust="spacing" textLength="92" x="177.75" y="113.1421">INameProvider nameProvider</text><line style="stroke:#181818;stroke-width:0.25;" x1="175.25" x2="361.75" y1="116.6802" y2="116.6802"/><text fill="#000000" font-family="sans-serif" font-size="7" lengthAdjust="spacing" textLength="181.5" x="177.75" y="126.7021">addSpaceByLevel(String,int,boolean,ArrayList&lt;Boolean&gt;)</text><text fill="#000000" font-family="sans-serif" font-size="7" lengthAdjust="spacing" textLength="146" x="177.75" y="136.2622">printTree(Object,boolean,ArrayList&lt;Boolean&gt;)</text></g><!--MD5=[ec0137a472f13a7ca3c6ff4792168287]
class ITreeContentProvider--><g id="elem_ITreeContentProvider"><rect codeLine="12" fill="#F1F1F1" height="43.1201" id="ITreeContentProvider" rx="1.25" ry="1.25" style="stroke:#181818;stroke-width:0.25;" width="84" x="81" y="169.5601"/><ellipse cx="88.5" cy="177.5601" fill="#B4A7E5" rx="5.5" ry="5.5" style="stroke:#181818;stroke-width:0.5;"/><path d="M86.9375,175.5601 L86.9375,174.7163 L89.9063,174.7163 L89.9063,175.5601 L88.9688,175.5601 Q88.8906,175.5601 88.8672,175.5757 Q88.8438,175.5913 88.8438,175.6147 L88.8438,179.6616 Q88.8438,179.6851 88.8672,179.7007 Q88.8906,179.7163 88.9688,179.7163 L89.9063,179.7163 L89.9063,180.5601 L86.9375,180.5601 L86.9375,179.7163 L87.875,179.7163 Q87.9766,179.7163 87.9844,179.7085 Q88,179.7007 88,179.6616 L88,175.6147 Q88,175.5757 87.9844,175.5679 Q87.9766,175.5601 87.875,175.5601 L86.9375,175.5601 Z " fill="#000000"/><text fill="#000000" font-family="sans-serif" font-size="7" font-style="italic" lengthAdjust="spacing" textLength="68" x="95.5" y="180.802">ITreeContentProvider</text><line style="stroke:#181818;stroke-width:0.25;" x1="81.5" x2="164.5" y1="185.5601" y2="185.5601"/><line style="stroke:#181818;stroke-width:0.25;" x1="81.5" x2="164.5" y1="189.5601" y2="189.5601"/><text fill="#000000" font-family="sans-serif" font-size="7" lengthAdjust="spacing" textLength="62" x="84" y="199.582">getChildren(Object)</text><text fill="#000000" font-family="sans-serif" font-size="7" lengthAdjust="spacing" textLength="50.5" x="84" y="209.1421">getRoot(Object)</text></g><!--MD5=[582d51423e0ac2256e8a0ef022441314]
class INameProvider--><g id="elem_INameProvider"><rect codeLine="17" fill="#F1F1F1" height="33.5601" id="INameProvider" rx="1.25" ry="1.25" style="stroke:#181818;stroke-width:0.25;" width="62.5" x="378.25" y="174.3101"/><ellipse cx="385.75" cy="182.3101" fill="#B4A7E5" rx="5.5" ry="5.5" style="stroke:#181818;stroke-width:0.5;"/><path d="M384.1875,180.3101 L384.1875,179.4663 L387.1563,179.4663 L387.1563,180.3101 L386.2188,180.3101 Q386.1406,180.3101 386.1172,180.3257 Q386.0938,180.3413 386.0938,180.3647 L386.0938,184.4116 Q386.0938,184.4351 386.1172,184.4507 Q386.1406,184.4663 386.2188,184.4663 L387.1563,184.4663 L387.1563,185.3101 L384.1875,185.3101 L384.1875,184.4663 L385.125,184.4663 Q385.2266,184.4663 385.2344,184.4585 Q385.25,184.4507 385.25,184.4116 L385.25,180.3647 Q385.25,180.3257 385.2344,180.3179 Q385.2266,180.3101 385.125,180.3101 L384.1875,180.3101 Z " fill="#000000"/><text fill="#000000" font-family="sans-serif" font-size="7" font-style="italic" lengthAdjust="spacing" textLength="46.5" x="392.75" y="185.552">INameProvider</text><line style="stroke:#181818;stroke-width:0.25;" x1="378.75" x2="440.25" y1="190.3101" y2="190.3101"/><line style="stroke:#181818;stroke-width:0.25;" x1="378.75" x2="440.25" y1="194.3101" y2="194.3101"/><text fill="#000000" font-family="sans-serif" font-size="7" lengthAdjust="spacing" textLength="53.5" x="381.25" y="204.332">getName(Object)</text></g><!--MD5=[34a183e6a2bb1fb41f4d8defe02bb20d]
class FileSystemCP--><g id="elem_FileSystemCP"><rect codeLine="21" fill="#F1F1F1" height="43.1201" id="FileSystemCP" rx="1.25" ry="1.25" style="stroke:#181818;stroke-width:0.25;" width="68" x="3.5" y="87.0601"/><ellipse cx="14.6" cy="95.0601" fill="#ADD1B2" rx="5.5" ry="5.5" style="stroke:#181818;stroke-width:0.5;"/><path d="M14.4438,98.0601 Q13.475,98.0601 12.9125,97.3491 Q12.35,96.6304 12.35,95.1538 Q12.35,93.9038 12.9438,93.0601 Q13.5375,92.2163 14.5688,92.2163 Q14.8109,92.2163 15.0609,92.271 Q15.2641,92.3413 15.3891,92.3413 Q15.4906,92.3413 15.5297,92.3335 Q15.5766,92.3179 15.8422,91.9819 L16.2094,94.0991 L15.725,94.396 Q15.475,93.6226 15.1859,93.3413 Q14.9047,93.0601 14.4516,93.0601 Q13.8734,93.0601 13.5297,93.6538 Q13.1938,94.2397 13.1938,95.1538 Q13.1938,96.1538 13.4828,96.6851 Q13.7719,97.2163 14.4203,97.2163 Q14.8813,97.2163 15.2016,96.9351 Q15.5297,96.646 15.7016,95.9507 L16.2172,96.2085 Q16.0219,97.0835 15.5531,97.5757 Q15.0844,98.0601 14.4438,98.0601 Z " fill="#000000"/><text fill="#000000" font-family="sans-serif" font-size="7" lengthAdjust="spacing" textLength="44" x="22.4" y="98.302">FileSystemCP</text><line style="stroke:#181818;stroke-width:0.25;" x1="4" x2="71" y1="103.0601" y2="103.0601"/><line style="stroke:#181818;stroke-width:0.25;" x1="4" x2="71" y1="107.0601" y2="107.0601"/><text fill="#000000" font-family="sans-serif" font-size="7" lengthAdjust="spacing" textLength="62" x="6.5" y="117.082">getChildren(Object)</text><text fill="#000000" font-family="sans-serif" font-size="7" lengthAdjust="spacing" textLength="50.5" x="6.5" y="126.6421">getRoot(Object)</text></g><!--MD5=[e5f553dffe2585d73ed98e0cb0aa01ab]
class FileSystemNP--><g id="elem_FileSystemNP"><rect codeLine="25" fill="#F1F1F1" height="33.5601" id="FileSystemNP" rx="1.25" ry="1.25" style="stroke:#181818;stroke-width:0.25;" width="59.5" x="456.75" y="91.8101"/><ellipse cx="464.25" cy="99.8101" fill="#ADD1B2" rx="5.5" ry="5.5" style="stroke:#181818;stroke-width:0.5;"/><path d="M464.0938,102.8101 Q463.125,102.8101 462.5625,102.0991 Q462,101.3804 462,99.9038 Q462,98.6538 462.5938,97.8101 Q463.1875,96.9663 464.2188,96.9663 Q464.4609,96.9663 464.7109,97.021 Q464.9141,97.0913 465.0391,97.0913 Q465.1406,97.0913 465.1797,97.0835 Q465.2266,97.0679 465.4922,96.7319 L465.8594,98.8491 L465.375,99.146 Q465.125,98.3726 464.8359,98.0913 Q464.5547,97.8101 464.1016,97.8101 Q463.5234,97.8101 463.1797,98.4038 Q462.8438,98.9897 462.8438,99.9038 Q462.8438,100.9038 463.1328,101.4351 Q463.4219,101.9663 464.0703,101.9663 Q464.5313,101.9663 464.8516,101.6851 Q465.1797,101.396 465.3516,100.7007 L465.8672,100.9585 Q465.6719,101.8335 465.2031,102.3257 Q464.7344,102.8101 464.0938,102.8101 Z " fill="#000000"/><text fill="#000000" font-family="sans-serif" font-size="7" lengthAdjust="spacing" textLength="43.5" x="471.25" y="103.052">FileSystemNP</text><line style="stroke:#181818;stroke-width:0.25;" x1="457.25" x2="515.75" y1="107.8101" y2="107.8101"/><line style="stroke:#181818;stroke-width:0.25;" x1="457.25" x2="515.75" y1="111.8101" y2="111.8101"/><text fill="#000000" font-family="sans-serif" font-size="7" lengthAdjust="spacing" textLength="53.5" x="459.75" y="121.832">getName(Object)</text></g><!--MD5=[38a651f4238ff53d836108ab8cc5fe58]
class BookmarkCP--><g id="elem_BookmarkCP"><rect codeLine="29" fill="#F1F1F1" height="43.1201" id="BookmarkCP" rx="1.25" ry="1.25" style="stroke:#181818;stroke-width:0.25;" width="68" x="89" y="87.0601"/><ellipse cx="101.45" cy="95.0601" fill="#ADD1B2" rx="5.5" ry="5.5" style="stroke:#181818;stroke-width:0.5;"/><path d="M101.2938,98.0601 Q100.325,98.0601 99.7625,97.3491 Q99.2,96.6304 99.2,95.1538 Q99.2,93.9038 99.7938,93.0601 Q100.3875,92.2163 101.4188,92.2163 Q101.6609,92.2163 101.9109,92.271 Q102.1141,92.3413 102.2391,92.3413 Q102.3406,92.3413 102.3797,92.3335 Q102.4266,92.3179 102.6922,91.9819 L103.0594,94.0991 L102.575,94.396 Q102.325,93.6226 102.0359,93.3413 Q101.7547,93.0601 101.3016,93.0601 Q100.7234,93.0601 100.3797,93.6538 Q100.0438,94.2397 100.0438,95.1538 Q100.0438,96.1538 100.3328,96.6851 Q100.6219,97.2163 101.2703,97.2163 Q101.7313,97.2163 102.0516,96.9351 Q102.3797,96.646 102.5516,95.9507 L103.0672,96.2085 Q102.8719,97.0835 102.4031,97.5757 Q101.9344,98.0601 101.2938,98.0601 Z " fill="#000000"/><text fill="#000000" font-family="sans-serif" font-size="7" lengthAdjust="spacing" textLength="41" x="109.55" y="98.302">BookmarkCP</text><line style="stroke:#181818;stroke-width:0.25;" x1="89.5" x2="156.5" y1="103.0601" y2="103.0601"/><line style="stroke:#181818;stroke-width:0.25;" x1="89.5" x2="156.5" y1="107.0601" y2="107.0601"/><text fill="#000000" font-family="sans-serif" font-size="7" lengthAdjust="spacing" textLength="62" x="92" y="117.082">getChildren(Object)</text><text fill="#000000" font-family="sans-serif" font-size="7" lengthAdjust="spacing" textLength="50.5" x="92" y="126.6421">getRoot(Object)</text></g><!--MD5=[865cecf729d19af9a437fc1790ee727e]
class BookmarkNP--><g id="elem_BookmarkNP"><rect codeLine="33" fill="#F1F1F1" height="33.5601" id="BookmarkNP" rx="1.25" ry="1.25" style="stroke:#181818;stroke-width:0.25;" width="59.5" x="379.75" y="91.8101"/><ellipse cx="388.6" cy="99.8101" fill="#ADD1B2" rx="5.5" ry="5.5" style="stroke:#181818;stroke-width:0.5;"/><path d="M388.4438,102.8101 Q387.475,102.8101 386.9125,102.0991 Q386.35,101.3804 386.35,99.9038 Q386.35,98.6538 386.9438,97.8101 Q387.5375,96.9663 388.5688,96.9663 Q388.8109,96.9663 389.0609,97.021 Q389.2641,97.0913 389.3891,97.0913 Q389.4906,97.0913 389.5297,97.0835 Q389.5766,97.0679 389.8422,96.7319 L390.2094,98.8491 L389.725,99.146 Q389.475,98.3726 389.1859,98.0913 Q388.9047,97.8101 388.4516,97.8101 Q387.8734,97.8101 387.5297,98.4038 Q387.1938,98.9897 387.1938,99.9038 Q387.1938,100.9038 387.4828,101.4351 Q387.7719,101.9663 388.4203,101.9663 Q388.8813,101.9663 389.2016,101.6851 Q389.5297,101.396 389.7016,100.7007 L390.2172,100.9585 Q390.0219,101.8335 389.5531,102.3257 Q389.0844,102.8101 388.4438,102.8101 Z " fill="#000000"/><text fill="#000000" font-family="sans-serif" font-size="7" lengthAdjust="spacing" textLength="40.5" x="395.9" y="103.052">BookmarkNP</text><line style="stroke:#181818;stroke-width:0.25;" x1="380.25" x2="438.75" y1="107.8101" y2="107.8101"/><line style="stroke:#181818;stroke-width:0.25;" x1="380.25" x2="438.75" y1="111.8101" y2="111.8101"/><text fill="#000000" font-family="sans-serif" font-size="7" lengthAdjust="spacing" textLength="53.5" x="382.75" y="121.832">getName(Object)</text></g><!--MD5=[3c1db82047404282ce9450ce0e4f5184]
class Bookmark--><g id="elem_Bookmark"><rect codeLine="44" fill="#F1F1F1" height="24" id="Bookmark" rx="1.25" ry="1.25" style="stroke:#181818;stroke-width:0.25;" width="47.5" x="242.25" y="23.5601"/><ellipse cx="249.75" cy="31.5601" fill="#ADD1B2" rx="5.5" ry="5.5" style="stroke:#181818;stroke-width:0.5;"/><path d="M249.5938,34.5601 Q248.625,34.5601 248.0625,33.8491 Q247.5,33.1304 247.5,31.6538 Q247.5,30.4038 248.0938,29.5601 Q248.6875,28.7163 249.7188,28.7163 Q249.9609,28.7163 250.2109,28.771 Q250.4141,28.8413 250.5391,28.8413 Q250.6406,28.8413 250.6797,28.8335 Q250.7266,28.8179 250.9922,28.4819 L251.3594,30.5991 L250.875,30.896 Q250.625,30.1226 250.3359,29.8413 Q250.0547,29.5601 249.6016,29.5601 Q249.0234,29.5601 248.6797,30.1538 Q248.3438,30.7397 248.3438,31.6538 Q248.3438,32.6538 248.6328,33.1851 Q248.9219,33.7163 249.5703,33.7163 Q250.0313,33.7163 250.3516,33.4351 Q250.6797,33.146 250.8516,32.4507 L251.3672,32.7085 Q251.1719,33.5835 250.7031,34.0757 Q250.2344,34.5601 249.5938,34.5601 Z " fill="#000000"/><text fill="#000000" font-family="sans-serif" font-size="7" lengthAdjust="spacing" textLength="31.5" x="256.75" y="34.802">Bookmark</text><line style="stroke:#181818;stroke-width:0.25;" x1="242.75" x2="289.25" y1="39.5601" y2="39.5601"/><line style="stroke:#181818;stroke-width:0.25;" x1="242.75" x2="289.25" y1="43.5601" y2="43.5601"/></g><!--MD5=[8199655d1ef3cf889d035748966b152e]
reverse link TreeViewer to ITreeContentProvider--><g id="link_TreeViewer_ITreeContentProvider"><path codeLine="37" d="M208.035,142.9301 C191.985,151.9201 175.115,161.3701 160.67,169.4601 " fill="none" id="TreeViewer-backto-ITreeContentProvider" style="stroke:#181818;stroke-width:0.5;"/><polygon fill="#181818" points="213.905,139.6401,210.3102,139.3621,208.671,142.5735,212.2658,142.8514,213.905,139.6401" style="stroke:#181818;stroke-width:0.5;"/></g><!--MD5=[a3dc37f9a046177d108be884fa9653b8]
reverse link TreeViewer to INameProvider--><g id="link_TreeViewer_INameProvider"><path codeLine="38" d="M327.165,142.9701 C345.875,153.7851 365.725,165.2601 381.25,174.2301 " fill="none" id="TreeViewer-backto-INameProvider" style="stroke:#181818;stroke-width:0.5;"/><polygon fill="#181818" points="321.405,139.6401,323.0012,142.8731,326.5994,142.6432,325.0032,139.4102,321.405,139.6401" style="stroke:#181818;stroke-width:0.5;"/></g><!--MD5=[b036c69817e63b14a56c57008fa1d43f]
link FileSystemCP to ITreeContentProvider--><g id="link_FileSystemCP_ITreeContentProvider"><path codeLine="39" d="M59.74,130.2601 C70.08,140.1201 82.52,151.9751 93.625,162.5551 " fill="none" id="FileSystemCP-to-ITreeContentProvider" style="stroke:#181818;stroke-width:0.5;stroke-dasharray:7.0,7.0;"/><polygon fill="none" points="96.045,160.0351,100.87,169.4651,91.215,165.1001,96.045,160.0351" style="stroke:#181818;stroke-width:0.5;"/></g><!--MD5=[9f018bc8f612c43485a816306cf07511]
link FileSystemNP to INameProvider--><g id="link_FileSystemNP_INameProvider"><path codeLine="40" d="M471.105,125.3551 C459.875,137.2401 444.49,153.5251 431.905,166.8451 " fill="none" id="FileSystemNP-to-INameProvider" style="stroke:#181818;stroke-width:0.5;stroke-dasharray:7.0,7.0;"/><polygon fill="none" points="434.28,169.4251,424.87,174.2901,429.195,164.6201,434.28,169.4251" style="stroke:#181818;stroke-width:0.5;"/></g><!--MD5=[f839c8c20c9a22f42e4881ec5951cae8]
link BookmarkCP to ITreeContentProvider--><g id="link_BookmarkCP_ITreeContentProvider"><path codeLine="41" d="M123,130.2601 C123,139.1251 123,149.6151 123,159.3301 " fill="none" id="BookmarkCP-to-ITreeContentProvider" style="stroke:#181818;stroke-width:0.5;stroke-dasharray:7.0,7.0;"/><polygon fill="none" points="126.5,159.4651,123,169.4651,119.5,159.4651,126.5,159.4651" style="stroke:#181818;stroke-width:0.5;"/></g><!--MD5=[19934cd263c98d96a7aa36ed44139b05]
link BookmarkNP to INameProvider--><g id="link_BookmarkNP_INameProvider"><path codeLine="42" d="M409.5,125.3551 C409.5,136.4601 409.5,151.4101 409.5,164.1951 " fill="none" id="BookmarkNP-to-INameProvider" style="stroke:#181818;stroke-width:0.5;stroke-dasharray:7.0,7.0;"/><polygon fill="none" points="413,164.2901,409.5,174.2901,406,164.2901,413,164.2901" style="stroke:#181818;stroke-width:0.5;"/></g><!--MD5=[95be75b6992e466e59bca0cf82d6fe7a]
reverse link Bookmark to BookmarkCP--><g id="link_Bookmark_BookmarkCP"><path codeLine="46" d="M239.6,45.1701 C218.995,52.7151 189.945,64.3151 166,77.5601 C160.955,80.3501 155.79,83.6151 150.865,86.9501 " fill="none" id="Bookmark-backto-BookmarkCP" style="stroke:#181818;stroke-width:0.5;"/><polygon fill="#181818" points="242.07,44.2701,237.1571,43.9331,239.7214,45.1267,238.5278,47.6909,242.07,44.2701" style="stroke:#181818;stroke-width:0.5;"/></g><!--MD5=[e0f335d91bbb7fe8007efb9445f53a2d]
reverse link Bookmark to BookmarkNP--><g id="link_Bookmark_BookmarkNP"><path codeLine="47" d="M292.33,44.0651 C314.175,51.2651 345.66,62.9451 371,77.5601 C377.945,81.5651 384.98,86.7401 391.1,91.6901 " fill="none" id="Bookmark-backto-BookmarkNP" style="stroke:#181818;stroke-width:0.5;"/><polygon fill="#181818" points="289.845,43.2551,293.4966,46.559,292.2203,44.0349,294.7443,42.7585,289.845,43.2551" style="stroke:#181818;stroke-width:0.5;"/></g><!--MD5=[4408ff2a3e5103b11107ea657eda589d]
@startuml
'https://plantuml.com/class-diagram

title 适配器模式类图

class TreeViewer{
 ITreeContentProvider contentProvider
 INameProvider nameProvider
 addSpaceByLevel(String,int,boolean,ArrayList<Boolean>)
 printTree(Object,boolean,ArrayList<Boolean>)
 }

 interface ITreeContentProvider{
 getChildren(Object)
 getRoot(Object)
 }

 interface INameProvider{
 getName(Object)
 }

 class FileSystemCP{
   getChildren(Object)
    getRoot(Object)
    }
    class FileSystemNP{
    getName(Object)
    }

class BookmarkCP{
 getChildren(Object)
 getRoot(Object)
 }
 class BookmarkNP{
 getName(Object)
 }
'    依赖
    TreeViewer *- - ITreeContentProvider
    TreeViewer *- - INameProvider
 FileSystemCP ..|> ITreeContentProvider
    FileSystemNP ..|> INameProvider
    BookmarkCP ..|> ITreeContentProvider
    BookmarkNP ..|> INameProvider

class Bookmark{}

Bookmark <- - BookmarkCP
Bookmark <- - BookmarkNP
@enduml

@startuml

title 适配器模式类图

class TreeViewer{
 ITreeContentProvider contentProvider
 INameProvider nameProvider
 addSpaceByLevel(String,int,boolean,ArrayList<Boolean>)
 printTree(Object,boolean,ArrayList<Boolean>)
 }

 interface ITreeContentProvider{
 getChildren(Object)
 getRoot(Object)
 }

 interface INameProvider{
 getName(Object)
 }

 class FileSystemCP{
   getChildren(Object)
    getRoot(Object)
    }
    class FileSystemNP{
    getName(Object)
    }

class BookmarkCP{
 getChildren(Object)
 getRoot(Object)
 }
 class BookmarkNP{
 getName(Object)
 }
    TreeViewer *- - ITreeContentProvider
    TreeViewer *- - INameProvider
 FileSystemCP ..|> ITreeContentProvider
    FileSystemNP ..|> INameProvider
    BookmarkCP ..|> ITreeContentProvider
    BookmarkNP ..|> INameProvider

class Bookmark{}

Bookmark <- - BookmarkCP
Bookmark <- - BookmarkNP
@enduml

PlantUML version 1.2022.12(Mon Oct 24 02:12:26 CST 2022)
(GPL source distribution)
Java Runtime: OpenJDK Runtime Environment
JVM: OpenJDK 64-Bit Server VM
Default Encoding: GBK
Language: zh
Country: CN
--></g></svg>