<?xml version="1.0" encoding="UTF-8" standalone="no"?><svg xmlns="http://www.w3.org/2000/svg" xmlns:xlink="http://www.w3.org/1999/xlink" contentStyleType="text/css" height="345.8px" preserveAspectRatio="none" style="width:496px;height:345px;background:#FFFFFF;" version="1.1" viewBox="0 0 496 345" width="496.3px" zoomAndPan="magnify"><defs/><g><!--MD5=[7e20e022571e30ec1001cf6eabd7f3e2]
class Model--><g id="elem_Model"><rect codeLine="2" fill="#F1F1F1" height="167.4408" id="Model" rx="1.75" ry="1.75" style="stroke:#181818;stroke-width:0.3499999999999999;" width="317.1" x="153.65" y="4.9"/><ellipse cx="295.925" cy="16.1" fill="#ADD1B2" rx="7.7" ry="7.7" style="stroke:#181818;stroke-width:0.6999999999999998;"/><path d="M295.7062,20.3 Q294.35,20.3 293.5625,19.3047 Q292.775,18.2984 292.775,16.2312 Q292.775,14.4812 293.6062,13.3 Q294.4375,12.1187 295.8812,12.1187 Q296.2203,12.1187 296.5703,12.1953 Q296.8547,12.2937 297.0297,12.2937 Q297.1719,12.2937 297.2266,12.2828 Q297.2922,12.2609 297.6641,11.7906 L298.1781,14.7547 L297.5,15.1703 Q297.15,14.0875 296.7453,13.6937 Q296.3516,13.3 295.7172,13.3 Q294.9078,13.3 294.4266,14.1312 Q293.9562,14.9516 293.9562,16.2312 Q293.9562,17.6312 294.3609,18.375 Q294.7656,19.1187 295.6734,19.1187 Q296.3187,19.1187 296.7672,18.725 Q297.2266,18.3203 297.4672,17.3469 L298.1891,17.7078 Q297.9156,18.9328 297.2594,19.6219 Q296.6031,20.3 295.7062,20.3 Z " fill="#000000"/><text fill="#000000" font-family="sans-serif" font-size="9.8" lengthAdjust="spacing" textLength="26.6" x="310.275" y="20.6387">Model</text><line style="stroke:#181818;stroke-width:0.3499999999999999;" x1="154.35" x2="470.05" y1="27.3" y2="27.3"/><text fill="#000000" font-family="sans-serif" font-size="9.8" lengthAdjust="spacing" textLength="90.3" x="157.85" y="41.3308">Bookmark bookmark</text><line style="stroke:#181818;stroke-width:0.3499999999999999;" x1="154.35" x2="470.05" y1="46.2841" y2="46.2841"/><text fill="#000000" font-family="sans-serif" font-size="9.8" lengthAdjust="spacing" textLength="145.6" x="157.85" y="60.3148">addCommand(String command[])</text><text fill="#000000" font-family="sans-serif" font-size="9.8" lengthAdjust="spacing" textLength="185.5" x="157.85" y="73.6989">deleteCommand(String deleteCommand[])</text><text fill="#000000" font-family="sans-serif" font-size="9.8" lengthAdjust="spacing" textLength="166.6" x="157.85" y="87.083">saveBookmarkToFile(String fileName)</text><text fill="#000000" font-family="sans-serif" font-size="9.8" lengthAdjust="spacing" textLength="175.7" x="157.85" y="100.4671">loadBookmarkFromFile(String fileName)</text><text fill="#000000" font-family="sans-serif" font-size="9.8" lengthAdjust="spacing" textLength="264.6" x="157.85" y="113.8512">readBookmark(String bookmarkName, Bookmark bookmark)</text><text fill="#000000" font-family="sans-serif" font-size="9.8" lengthAdjust="spacing" textLength="280" x="157.85" y="127.2353">undoFromDeleteTitle(OperationParentNode node, Bookmark b)</text><text fill="#000000" font-family="sans-serif" font-size="9.8" lengthAdjust="spacing" textLength="308.7" x="157.85" y="140.6193">undoFromDeleteMark(OperationParentNode node, MarkInfo markInfo)</text><text fill="#000000" font-family="sans-serif" font-size="9.8" lengthAdjust="spacing" textLength="268.8" x="157.85" y="154.0034">undoFromAddTitle(OperationParentNode node, Bookmark b)</text><text fill="#000000" font-family="sans-serif" font-size="9.8" lengthAdjust="spacing" textLength="297.5" x="157.85" y="167.3875">undoFromAddMark(OperationParentNode node, MarkInfo markInfo)</text></g><!--MD5=[c7f35bde84020a21fe3ad0c6cd1d0ab2]
class FileIO--><g id="elem_FileIO"><rect codeLine="15" fill="#F1F1F1" height="73.7522" id="FileIO" rx="1.75" ry="1.75" style="stroke:#181818;stroke-width:0.3499999999999999;" width="194.6" x="4.9" y="241.15"/><ellipse cx="86.275" cy="252.35" fill="#ADD1B2" rx="7.7" ry="7.7" style="stroke:#181818;stroke-width:0.6999999999999998;"/><path d="M86.0562,256.55 Q84.7,256.55 83.9125,255.5547 Q83.125,254.5484 83.125,252.4812 Q83.125,250.7312 83.9562,249.55 Q84.7875,248.3687 86.2312,248.3687 Q86.5703,248.3687 86.9203,248.4453 Q87.2047,248.5437 87.3797,248.5437 Q87.5219,248.5437 87.5766,248.5328 Q87.6422,248.5109 88.0141,248.0406 L88.5281,251.0047 L87.85,251.4203 Q87.5,250.3375 87.0953,249.9437 Q86.7016,249.55 86.0672,249.55 Q85.2578,249.55 84.7766,250.3812 Q84.3062,251.2016 84.3062,252.4812 Q84.3062,253.8812 84.7109,254.625 Q85.1156,255.3687 86.0234,255.3687 Q86.6687,255.3687 87.1172,254.975 Q87.5766,254.5703 87.8172,253.5969 L88.5391,253.9578 Q88.2656,255.1828 87.6094,255.8719 Q86.9531,256.55 86.0562,256.55 Z " fill="#000000"/><text fill="#000000" font-family="sans-serif" font-size="9.8" lengthAdjust="spacing" textLength="25.9" x="100.625" y="256.8887">FileIO</text><line style="stroke:#181818;stroke-width:0.3499999999999999;" x1="5.6" x2="198.8" y1="263.55" y2="263.55"/><text fill="#000000" font-family="sans-serif" font-size="9.8" lengthAdjust="spacing" textLength="51.1" x="9.1" y="277.5808">FILE_PATH</text><line style="stroke:#181818;stroke-width:0.3499999999999999;" x1="5.6" x2="198.8" y1="282.5341" y2="282.5341"/><text fill="#000000" font-family="sans-serif" font-size="9.8" lengthAdjust="spacing" textLength="186.2" x="9.1" y="296.5648">writeToFile(String content,String fileName)</text><text fill="#000000" font-family="sans-serif" font-size="9.8" lengthAdjust="spacing" textLength="133" x="9.1" y="309.9489">readFromFile(String fileName)</text></g><!--MD5=[e048b7696d9671dc8f20ed9287f48e9b]
class OperationParentNode--><g id="elem_OperationParentNode"><rect codeLine="21" fill="#F1F1F1" height="127.2886" id="OperationParentNode" rx="1.75" ry="1.75" style="stroke:#181818;stroke-width:0.3499999999999999;" width="176.4" x="224" y="214.2"/><ellipse cx="260.925" cy="225.4" fill="#ADD1B2" rx="7.7" ry="7.7" style="stroke:#181818;stroke-width:0.6999999999999998;"/><path d="M260.7062,229.6 Q259.35,229.6 258.5625,228.6047 Q257.775,227.5984 257.775,225.5312 Q257.775,223.7812 258.6062,222.6 Q259.4375,221.4187 260.8812,221.4187 Q261.2203,221.4187 261.5703,221.4953 Q261.8547,221.5937 262.0297,221.5937 Q262.1719,221.5937 262.2266,221.5828 Q262.2922,221.5609 262.6641,221.0906 L263.1781,224.0547 L262.5,224.4703 Q262.15,223.3875 261.7453,222.9937 Q261.3516,222.6 260.7172,222.6 Q259.9078,222.6 259.4266,223.4312 Q258.9562,224.2516 258.9562,225.5312 Q258.9562,226.9312 259.3609,227.675 Q259.7656,228.4187 260.6734,228.4187 Q261.3187,228.4187 261.7672,228.025 Q262.2266,227.6203 262.4672,226.6469 L263.1891,227.0078 Q262.9156,228.2328 262.2594,228.9219 Q261.6031,229.6 260.7062,229.6 Z " fill="#000000"/><text fill="#000000" font-family="sans-serif" font-size="9.8" lengthAdjust="spacing" textLength="96.6" x="275.275" y="229.9387">OperationParentNode</text><line style="stroke:#181818;stroke-width:0.3499999999999999;" x1="224.7" x2="399.7" y1="236.6" y2="236.6"/><text fill="#000000" font-family="sans-serif" font-size="9.8" lengthAdjust="spacing" textLength="53.9" x="228.2" y="250.6308">Integer level</text><text fill="#000000" font-family="sans-serif" font-size="9.8" lengthAdjust="spacing" textLength="44.1" x="228.2" y="264.0148">String title</text><text fill="#000000" font-family="sans-serif" font-size="9.8" lengthAdjust="spacing" textLength="56.7" x="228.2" y="277.3989">Integer index</text><line style="stroke:#181818;stroke-width:0.3499999999999999;" x1="224.7" x2="399.7" y1="282.3522" y2="282.3522"/><text fill="#000000" font-family="sans-serif" font-size="9.8" lengthAdjust="spacing" textLength="44.8" x="228.2" y="296.383">getLevel()</text><text fill="#000000" font-family="sans-serif" font-size="9.8" lengthAdjust="spacing" textLength="39.9" x="228.2" y="309.7671">getTitle()</text><text fill="#000000" font-family="sans-serif" font-size="9.8" lengthAdjust="spacing" textLength="44.1" x="228.2" y="323.1512">getIndex()</text><text fill="#000000" font-family="sans-serif" font-size="9.8" lengthAdjust="spacing" textLength="168" x="228.2" y="336.5353">OperationParentNode(level,title,index)</text></g><!--MD5=[3c1db82047404282ce9450ce0e4f5184]
class Bookmark--><g id="elem_Bookmark"><rect codeLine="35" fill="#F1F1F1" height="33.6" id="Bookmark" rx="1.75" ry="1.75" style="stroke:#181818;stroke-width:0.3499999999999999;" width="66.5" x="425.25" y="261.1"/><ellipse cx="435.75" cy="272.3" fill="#ADD1B2" rx="7.7" ry="7.7" style="stroke:#181818;stroke-width:0.6999999999999998;"/><path d="M435.5312,276.5 Q434.175,276.5 433.3875,275.5047 Q432.6,274.4984 432.6,272.4312 Q432.6,270.6812 433.4312,269.5 Q434.2625,268.3187 435.7062,268.3187 Q436.0453,268.3187 436.3953,268.3953 Q436.6797,268.4937 436.8547,268.4937 Q436.9969,268.4937 437.0516,268.4828 Q437.1172,268.4609 437.4891,267.9906 L438.0031,270.9547 L437.325,271.3703 Q436.975,270.2875 436.5703,269.8937 Q436.1766,269.5 435.5422,269.5 Q434.7328,269.5 434.2516,270.3312 Q433.7812,271.1516 433.7812,272.4312 Q433.7812,273.8312 434.1859,274.575 Q434.5906,275.3187 435.4984,275.3187 Q436.1437,275.3187 436.5922,274.925 Q437.0516,274.5203 437.2922,273.5469 L438.0141,273.9078 Q437.7406,275.1328 437.0844,275.8219 Q436.4281,276.5 435.5312,276.5 Z " fill="#000000"/><text fill="#000000" font-family="sans-serif" font-size="9.8" lengthAdjust="spacing" textLength="44.1" x="445.55" y="276.8387">Bookmark</text><line style="stroke:#181818;stroke-width:0.3499999999999999;" x1="425.95" x2="491.05" y1="283.5" y2="283.5"/><line style="stroke:#181818;stroke-width:0.3499999999999999;" x1="425.95" x2="491.05" y1="289.1" y2="289.1"/></g><!--MD5=[b0d0999d73c482480580c3e03651011e]
link Model to FileIO--><g id="link_Model_FileIO"><path codeLine="32" d="M219.478,172.235 C193.718,195.293 166.957,219.247 145.509,238.434 " fill="none" id="Model-to-FileIO" style="stroke:#181818;stroke-width:0.6999999999999998;stroke-dasharray:7.0,7.0;"/><polygon fill="#181818" points="142.653,240.996,149.2089,238.8627,145.2545,238.6546,145.4627,234.7003,142.653,240.996" style="stroke:#181818;stroke-width:0.6999999999999998;"/></g><!--MD5=[bcd16dbddf8931f8e126da935119903d]
link Model to OperationParentNode--><g id="link_Model_OperationParentNode"><path codeLine="33" d="M312.2,172.235 C312.2,184.982 312.2,197.995 312.2,210.329 " fill="none" id="Model-to-OperationParentNode" style="stroke:#181818;stroke-width:0.6999999999999998;stroke-dasharray:7.0,7.0;"/><polygon fill="#181818" points="312.2,214.137,315,207.837,312.2,210.637,309.4,207.837,312.2,214.137" style="stroke:#181818;stroke-width:0.6999999999999998;"/></g><!--MD5=[6fe0ba757f9952a992747c4e049bb8d9]
reverse link Model to Bookmark--><g id="link_Model_Bookmark"><path codeLine="34" d="M386.036,179.613 C395.206,191.177 404.383,202.916 413,214.2 C424.956,229.859 438.074,248.143 447.139,260.974 " fill="none" id="Model-backto-Bookmark" style="stroke:#181818;stroke-width:0.6999999999999998;"/><polygon fill="none" points="380.331,172.438,380.7571,177.4678,385.5638,179.009,385.1377,173.9792,380.331,172.438" style="stroke:#181818;stroke-width:0.6999999999999998;"/></g><!--MD5=[7546a979501d0fc610a123017a789ed1]
@startuml
'https://plantuml.com/class-diagram
class Model{
Bookmark bookmark
addCommand(String command[])
deleteCommand(String deleteCommand[])
saveBookmarkToFile(String fileName)
loadBookmarkFromFile(String fileName)
readBookmark(String bookmarkName, Bookmark bookmark)
undoFromDeleteTitle(OperationParentNode node, Bookmark b)
undoFromDeleteMark(OperationParentNode node, MarkInfo markInfo)
undoFromAddTitle(OperationParentNode node, Bookmark b)
undoFromAddMark(OperationParentNode node, MarkInfo markInfo)
}

class FileIO{
FILE_PATH
writeToFile(String content,String fileName)
readFromFile(String fileName)
}

class OperationParentNode{
Integer level
String title
Integer index
getLevel()
getTitle()
getIndex()
OperationParentNode(level,title,index)
}

'Model 依赖了FileIO
Model ..> FileIO
Model ..> OperationParentNode
Model o- - Bookmark
class Bookmark{
}
@enduml

@startuml
class Model{
Bookmark bookmark
addCommand(String command[])
deleteCommand(String deleteCommand[])
saveBookmarkToFile(String fileName)
loadBookmarkFromFile(String fileName)
readBookmark(String bookmarkName, Bookmark bookmark)
undoFromDeleteTitle(OperationParentNode node, Bookmark b)
undoFromDeleteMark(OperationParentNode node, MarkInfo markInfo)
undoFromAddTitle(OperationParentNode node, Bookmark b)
undoFromAddMark(OperationParentNode node, MarkInfo markInfo)
}

class FileIO{
FILE_PATH
writeToFile(String content,String fileName)
readFromFile(String fileName)
}

class OperationParentNode{
Integer level
String title
Integer index
getLevel()
getTitle()
getIndex()
OperationParentNode(level,title,index)
}

Model ..> FileIO
Model ..> OperationParentNode
Model o- - Bookmark
class Bookmark{
}
@enduml

PlantUML version 1.2022.12(Mon Oct 24 02:12:26 CST 2022)
(GPL source distribution)
Java Runtime: OpenJDK Runtime Environment
JVM: OpenJDK 64-Bit Server VM
Default Encoding: GBK
Language: zh
Country: CN
--></g></svg>